<svg xmlns="http://www.w3.org/2000/svg" xmlns:xlink="http://www.w3.org/1999/xlink" width="500" zoomAndPan="magnify" viewBox="0 0 375 374.999991" height="500" preserveAspectRatio="xMidYMid meet" version="1.0"><defs><clipPath id="3d07ef0b69"><path d="M 73.890625 144.550781 L 116.839844 144.550781 L 116.839844 187.5 L 73.890625 187.5 Z M 73.890625 144.550781 " clip-rule="nonzero"/></clipPath><clipPath id="7606431836"><path d="M 0.890625 0.550781 L 43.839844 0.550781 L 43.839844 43.5 L 0.890625 43.5 Z M 0.890625 0.550781 " clip-rule="nonzero"/></clipPath><clipPath id="84efd7d964"><rect x="0" width="44" y="0" height="44"/></clipPath><clipPath id="5c7d0d4814"><path d="M 116.839844 144.550781 L 159.789062 144.550781 L 159.789062 187.5 L 116.839844 187.5 Z M 116.839844 144.550781 " clip-rule="nonzero"/></clipPath><clipPath id="ce2b956d98"><path d="M 0.839844 0.550781 L 43.789062 0.550781 L 43.789062 43.5 L 0.839844 43.5 Z M 0.839844 0.550781 " clip-rule="nonzero"/></clipPath><clipPath id="61ac0c0052"><rect x="0" width="44" y="0" height="44"/></clipPath><clipPath id="fdb4055685"><path d="M 73.890625 101.597656 L 116.839844 101.597656 L 116.839844 144.550781 L 73.890625 144.550781 Z M 73.890625 101.597656 " clip-rule="nonzero"/></clipPath><clipPath id="6e23b90309"><path d="M 0.890625 0.597656 L 43.839844 0.597656 L 43.839844 43.550781 L 0.890625 43.550781 Z M 0.890625 0.597656 " clip-rule="nonzero"/></clipPath><clipPath id="02e2ae0f5a"><rect x="0" width="44" y="0" height="44"/></clipPath><clipPath id="289578db90"><path d="M 116.839844 101.597656 L 159.789062 101.597656 L 159.789062 144.550781 L 116.839844 144.550781 Z M 116.839844 101.597656 " clip-rule="nonzero"/></clipPath><clipPath id="819ee40290"><path d="M 0.839844 0.597656 L 43.789062 0.597656 L 43.789062 43.550781 L 0.839844 43.550781 Z M 0.839844 0.597656 " clip-rule="nonzero"/></clipPath><clipPath id="cba1be2091"><rect x="0" width="44" y="0" height="44"/></clipPath><clipPath id="80993c66e5"><path d="M 103.089844 130.800781 L 130.589844 130.800781 L 130.589844 158.296875 L 103.089844 158.296875 Z M 103.089844 130.800781 " clip-rule="nonzero"/></clipPath><clipPath id="392582b822"><path d="M 0.0898438 0.800781 L 27.589844 0.800781 L 27.589844 28.296875 L 0.0898438 28.296875 Z M 0.0898438 0.800781 " clip-rule="nonzero"/></clipPath><clipPath id="6f86553f0d"><rect x="0" width="28" y="0" height="29"/></clipPath><clipPath id="47de203a5d"><path d="M 30.9375 144.550781 L 73.890625 144.550781 L 73.890625 187.5 L 30.9375 187.5 Z M 30.9375 144.550781 " clip-rule="nonzero"/></clipPath><clipPath id="440d081b15"><path d="M 0.9375 0.550781 L 43.890625 0.550781 L 43.890625 43.5 L 0.9375 43.5 Z M 0.9375 0.550781 " clip-rule="nonzero"/></clipPath><clipPath id="d2612a1281"><rect x="0" width="44" y="0" height="44"/></clipPath><clipPath id="d990618c86"><path d="M 73.890625 187.5 L 116.839844 187.5 L 116.839844 230.449219 L 73.890625 230.449219 Z M 73.890625 187.5 " clip-rule="nonzero"/></clipPath><clipPath id="3f7c42d97b"><path d="M 0.890625 0.5 L 43.839844 0.5 L 43.839844 43.449219 L 0.890625 43.449219 Z M 0.890625 0.5 " clip-rule="nonzero"/></clipPath><clipPath id="e2987b796c"><rect x="0" width="44" y="0" height="44"/></clipPath><clipPath id="eeb35a6566"><path d="M 138.316406 187.5 L 181.265625 187.5 L 181.265625 230.449219 L 138.316406 230.449219 Z M 138.316406 187.5 " clip-rule="nonzero"/></clipPath><clipPath id="875566eb17"><path d="M 0.316406 0.5 L 43.265625 0.5 L 43.265625 43.449219 L 0.316406 43.449219 Z M 0.316406 0.5 " clip-rule="nonzero"/></clipPath><clipPath id="698a66ecb8"><rect x="0" width="44" y="0" height="44"/></clipPath><clipPath id="12bb045f08"><path d="M 73.890625 230.449219 L 116.839844 230.449219 L 116.839844 273.402344 L 73.890625 273.402344 Z M 73.890625 230.449219 " clip-rule="nonzero"/></clipPath><clipPath id="d32a344c2e"><path d="M 0.890625 0.449219 L 43.839844 0.449219 L 43.839844 43.402344 L 0.890625 43.402344 Z M 0.890625 0.449219 " clip-rule="nonzero"/></clipPath><clipPath id="e99e2b8859"><rect x="0" width="44" y="0" height="44"/></clipPath><clipPath id="dbcf60a3a5"><path d="M 152.230469 230.449219 L 195.183594 230.449219 L 195.183594 273.402344 L 152.230469 273.402344 Z M 152.230469 230.449219 " clip-rule="nonzero"/></clipPath><clipPath id="3deeab529b"><path d="M 0.230469 0.449219 L 43.183594 0.449219 L 43.183594 43.402344 L 0.230469 43.402344 Z M 0.230469 0.449219 " clip-rule="nonzero"/></clipPath><clipPath id="c88a420697"><rect x="0" width="44" y="0" height="44"/></clipPath><clipPath id="1279559860"><path d="M 214.972656 101.597656 L 257.921875 101.597656 L 257.921875 144.550781 L 214.972656 144.550781 Z M 214.972656 101.597656 " clip-rule="nonzero"/></clipPath><clipPath id="a1d0358213"><path d="M 0.972656 0.597656 L 43.921875 0.597656 L 43.921875 43.550781 L 0.972656 43.550781 Z M 0.972656 0.597656 " clip-rule="nonzero"/></clipPath><clipPath id="54fd62d80e"><rect x="0" width="44" y="0" height="44"/></clipPath><clipPath id="a73a84b9cd"><path d="M 214.972656 144.550781 L 257.921875 144.550781 L 257.921875 187.5 L 214.972656 187.5 Z M 214.972656 144.550781 " clip-rule="nonzero"/></clipPath><clipPath id="4e34716749"><path d="M 0.972656 0.550781 L 43.921875 0.550781 L 43.921875 43.5 L 0.972656 43.5 Z M 0.972656 0.550781 " clip-rule="nonzero"/></clipPath><clipPath id="5033697c56"><rect x="0" width="44" y="0" height="44"/></clipPath><clipPath id="012df496a5"><path d="M 214.972656 187.5 L 257.921875 187.5 L 257.921875 230.449219 L 214.972656 230.449219 Z M 214.972656 187.5 " clip-rule="nonzero"/></clipPath><clipPath id="13f12689f8"><path d="M 0.972656 0.5 L 43.921875 0.5 L 43.921875 43.449219 L 0.972656 43.449219 Z M 0.972656 0.5 " clip-rule="nonzero"/></clipPath><clipPath id="e0888fb50c"><rect x="0" width="44" y="0" height="44"/></clipPath><clipPath id="877747875b"><path d="M 214.972656 230.449219 L 257.921875 230.449219 L 257.921875 273.402344 L 214.972656 273.402344 Z M 214.972656 230.449219 " clip-rule="nonzero"/></clipPath><clipPath id="32aac924df"><path d="M 0.972656 0.449219 L 43.921875 0.449219 L 43.921875 43.402344 L 0.972656 43.402344 Z M 0.972656 0.449219 " clip-rule="nonzero"/></clipPath><clipPath id="244ecdf0f3"><rect x="0" width="44" y="0" height="44"/></clipPath><clipPath id="eac88e4d2e"><path d="M 257.921875 101.597656 L 300.871094 101.597656 L 300.871094 144.550781 L 257.921875 144.550781 Z M 257.921875 101.597656 " clip-rule="nonzero"/></clipPath><clipPath id="6b2a67c0b5"><path d="M 0.921875 0.597656 L 43.871094 0.597656 L 43.871094 43.550781 L 0.921875 43.550781 Z M 0.921875 0.597656 " clip-rule="nonzero"/></clipPath><clipPath id="74275d0fe3"><rect x="0" width="44" y="0" height="44"/></clipPath><clipPath id="5780f0884a"><path d="M 301.109375 144.550781 L 344.0625 144.550781 L 344.0625 187.5 L 301.109375 187.5 Z M 301.109375 144.550781 " clip-rule="nonzero"/></clipPath><clipPath id="4ac5cd6177"><path d="M 0.109375 0.550781 L 43.0625 0.550781 L 43.0625 43.5 L 0.109375 43.5 Z M 0.109375 0.550781 " clip-rule="nonzero"/></clipPath><clipPath id="54aa522576"><rect x="0" width="44" y="0" height="44"/></clipPath><clipPath id="50dc0baec8"><path d="M 300.871094 187.5 L 343.824219 187.5 L 343.824219 230.449219 L 300.871094 230.449219 Z M 300.871094 187.5 " clip-rule="nonzero"/></clipPath><clipPath id="f2720cd8d8"><path d="M 0.871094 0.5 L 43.824219 0.5 L 43.824219 43.449219 L 0.871094 43.449219 Z M 0.871094 0.5 " clip-rule="nonzero"/></clipPath><clipPath id="5672436390"><rect x="0" width="44" y="0" height="44"/></clipPath><clipPath id="2f0658084a"><path d="M 258.160156 230.449219 L 301.109375 230.449219 L 301.109375 273.402344 L 258.160156 273.402344 Z M 258.160156 230.449219 " clip-rule="nonzero"/></clipPath><clipPath id="24cc9f9810"><path d="M 0.160156 0.449219 L 43.109375 0.449219 L 43.109375 43.402344 L 0.160156 43.402344 Z M 0.160156 0.449219 " clip-rule="nonzero"/></clipPath><clipPath id="94c274a7c1"><rect x="0" width="44" y="0" height="44"/></clipPath></defs><rect x="-37.5" width="450" fill="#ffffff" y="-37.499999" height="449.999989" fill-opacity="1"/><rect x="-37.5" width="450" fill="#ffffff" y="-37.499999" height="449.999989" fill-opacity="1"/><g clip-path="url(#3d07ef0b69)"><g transform="matrix(1, 0, 0, 1, 73, 144)"><g clip-path="url(#84efd7d964)"><g clip-path="url(#7606431836)"><path fill="#202020" d="M 0.890625 0.550781 L 43.839844 0.550781 L 43.839844 43.5 L 0.890625 43.5 Z M 0.890625 0.550781 " fill-opacity="1" fill-rule="nonzero"/></g></g></g></g><g clip-path="url(#5c7d0d4814)"><g transform="matrix(1, 0, 0, 1, 116, 144)"><g clip-path="url(#61ac0c0052)"><g clip-path="url(#ce2b956d98)"><path fill="#202020" d="M 0.839844 0.550781 L 43.789062 0.550781 L 43.789062 43.5 L 0.839844 43.5 Z M 0.839844 0.550781 " fill-opacity="1" fill-rule="nonzero"/></g></g></g></g><g clip-path="url(#fdb4055685)"><g transform="matrix(1, 0, 0, 1, 73, 101)"><g clip-path="url(#02e2ae0f5a)"><g clip-path="url(#6e23b90309)"><path fill="#202020" d="M 0.890625 0.597656 L 43.839844 0.597656 L 43.839844 43.550781 L 0.890625 43.550781 Z M 0.890625 0.597656 " fill-opacity="1" fill-rule="nonzero"/></g></g></g></g><g clip-path="url(#289578db90)"><g transform="matrix(1, 0, 0, 1, 116, 101)"><g clip-path="url(#cba1be2091)"><g clip-path="url(#819ee40290)"><path fill="#202020" d="M 0.839844 0.597656 L 43.789062 0.597656 L 43.789062 43.550781 L 0.839844 43.550781 Z M 0.839844 0.597656 " fill-opacity="1" fill-rule="nonzero"/></g></g></g></g><g clip-path="url(#80993c66e5)"><g transform="matrix(1, 0, 0, 1, 103, 130)"><g clip-path="url(#6f86553f0d)"><g clip-path="url(#392582b822)"><path fill="#ffffff" d="M 0.0898438 0.800781 L 27.589844 0.800781 L 27.589844 28.296875 L 0.0898438 28.296875 Z M 0.0898438 0.800781 " fill-opacity="1" fill-rule="nonzero"/></g></g></g></g><g clip-path="url(#47de203a5d)"><g transform="matrix(1, 0, 0, 1, 30, 144)"><g clip-path="url(#d2612a1281)"><g clip-path="url(#440d081b15)"><path fill="#202020" d="M 0.9375 0.550781 L 43.890625 0.550781 L 43.890625 43.5 L 0.9375 43.5 Z M 0.9375 0.550781 " fill-opacity="1" fill-rule="nonzero"/></g></g></g></g><g clip-path="url(#d990618c86)"><g transform="matrix(1, 0, 0, 1, 73, 187)"><g clip-path="url(#e2987b796c)"><g clip-path="url(#3f7c42d97b)"><path fill="#202020" d="M 0.890625 0.5 L 43.839844 0.5 L 43.839844 43.449219 L 0.890625 43.449219 Z M 0.890625 0.5 " fill-opacity="1" fill-rule="nonzero"/></g></g></g></g><g clip-path="url(#eeb35a6566)"><g transform="matrix(1, 0, 0, 1, 138, 187)"><g clip-path="url(#698a66ecb8)"><g clip-path="url(#875566eb17)"><path fill="#202020" d="M 0.316406 0.5 L 43.265625 0.5 L 43.265625 43.449219 L 0.316406 43.449219 Z M 0.316406 0.5 " fill-opacity="1" fill-rule="nonzero"/></g></g></g></g><g clip-path="url(#12bb045f08)"><g transform="matrix(1, 0, 0, 1, 73, 230)"><g clip-path="url(#e99e2b8859)"><g clip-path="url(#d32a344c2e)"><path fill="#202020" d="M 0.890625 0.449219 L 43.839844 0.449219 L 43.839844 43.402344 L 0.890625 43.402344 Z M 0.890625 0.449219 " fill-opacity="1" fill-rule="nonzero"/></g></g></g></g><g clip-path="url(#dbcf60a3a5)"><g transform="matrix(1, 0, 0, 1, 152, 230)"><g clip-path="url(#c88a420697)"><g clip-path="url(#3deeab529b)"><path fill="#202020" d="M 0.230469 0.449219 L 43.183594 0.449219 L 43.183594 43.402344 L 0.230469 43.402344 Z M 0.230469 0.449219 " fill-opacity="1" fill-rule="nonzero"/></g></g></g></g><g clip-path="url(#1279559860)"><g transform="matrix(1, 0, 0, 1, 214, 101)"><g clip-path="url(#54fd62d80e)"><g clip-path="url(#a1d0358213)"><path fill="#202020" d="M 0.972656 0.597656 L 43.921875 0.597656 L 43.921875 43.550781 L 0.972656 43.550781 Z M 0.972656 0.597656 " fill-opacity="1" fill-rule="nonzero"/></g></g></g></g><g clip-path="url(#a73a84b9cd)"><g transform="matrix(1, 0, 0, 1, 214, 144)"><g clip-path="url(#5033697c56)"><g clip-path="url(#4e34716749)"><path fill="#202020" d="M 0.972656 0.550781 L 43.921875 0.550781 L 43.921875 43.5 L 0.972656 43.5 Z M 0.972656 0.550781 " fill-opacity="1" fill-rule="nonzero"/></g></g></g></g><g clip-path="url(#012df496a5)"><g transform="matrix(1, 0, 0, 1, 214, 187)"><g clip-path="url(#e0888fb50c)"><g clip-path="url(#13f12689f8)"><path fill="#202020" d="M 0.972656 0.5 L 43.921875 0.5 L 43.921875 43.449219 L 0.972656 43.449219 Z M 0.972656 0.5 " fill-opacity="1" fill-rule="nonzero"/></g></g></g></g><g clip-path="url(#877747875b)"><g transform="matrix(1, 0, 0, 1, 214, 230)"><g clip-path="url(#244ecdf0f3)"><g clip-path="url(#32aac924df)"><path fill="#202020" d="M 0.972656 0.449219 L 43.921875 0.449219 L 43.921875 43.402344 L 0.972656 43.402344 Z M 0.972656 0.449219 " fill-opacity="1" fill-rule="nonzero"/></g></g></g></g><g clip-path="url(#eac88e4d2e)"><g transform="matrix(1, 0, 0, 1, 257, 101)"><g clip-path="url(#74275d0fe3)"><g clip-path="url(#6b2a67c0b5)"><path fill="#202020" d="M 0.921875 0.597656 L 43.871094 0.597656 L 43.871094 43.550781 L 0.921875 43.550781 Z M 0.921875 0.597656 " fill-opacity="1" fill-rule="nonzero"/></g></g></g></g><g clip-path="url(#5780f0884a)"><g transform="matrix(1, 0, 0, 1, 301, 144)"><g clip-path="url(#54aa522576)"><g clip-path="url(#4ac5cd6177)"><path fill="#202020" d="M 0.109375 0.550781 L 43.0625 0.550781 L 43.0625 43.5 L 0.109375 43.5 Z M 0.109375 0.550781 " fill-opacity="1" fill-rule="nonzero"/></g></g></g></g><g clip-path="url(#50dc0baec8)"><g transform="matrix(1, 0, 0, 1, 300, 187)"><g clip-path="url(#5672436390)"><g clip-path="url(#f2720cd8d8)"><path fill="#202020" d="M 0.871094 0.5 L 43.824219 0.5 L 43.824219 43.449219 L 0.871094 43.449219 Z M 0.871094 0.5 " fill-opacity="1" fill-rule="nonzero"/></g></g></g></g><g clip-path="url(#2f0658084a)"><g transform="matrix(1, 0, 0, 1, 258, 230)"><g clip-path="url(#94c274a7c1)"><g clip-path="url(#24cc9f9810)"><path fill="#202020" d="M 0.160156 0.449219 L 43.109375 0.449219 L 43.109375 43.402344 L 0.160156 43.402344 Z M 0.160156 0.449219 " fill-opacity="1" fill-rule="nonzero"/></g></g></g></g></svg>